<?xml version="1.0" standalone="no"?>
<!DOCTYPE svg PUBLIC "-//W3C//DTD SVG 20010904//EN"
 "http://www.w3.org/TR/2001/REC-SVG-20010904/DTD/svg10.dtd">
<svg version="1.0" xmlns="http://www.w3.org/2000/svg"
 width="201.000000pt" height="211.000000pt" viewBox="0 0 201.000000 211.000000"
 preserveAspectRatio="xMidYMid meet">

<g transform="translate(0.000000,211.000000) scale(0.100000,-0.100000)"
fill="#000000" stroke="none">
<path d="M0 2088 c0 -20 1 -21 20 -3 11 10 20 20 20 22 0 1 -9 3 -20 3 -14 0
-20 -7 -20 -22z"/>
<path d="M1985 2090 c10 -11 20 -20 22 -20 1 0 3 9 3 20 0 14 -7 20 -22 20
-20 0 -21 -1 -3 -20z"/>
<path d="M820 2021 c-110 -37 -205 -108 -242 -181 -28 -57 -33 -92 -30 -232
l2 -77 115 -119 c130 -135 202 -182 278 -182 45 0 47 2 128 90 45 49 97 111
116 136 l33 48 0 -105 0 -104 59 -81 c79 -111 80 -112 49 -92 -15 10 -66 34
-115 54 -73 30 -104 38 -179 42 -102 5 -160 -9 -251 -60 l-53 -29 0 51 c0 29
-7 67 -16 86 -21 45 -158 172 -254 236 -69 46 -78 50 -121 45 -49 -6 -143 -44
-190 -78 -16 -11 -39 -39 -51 -62 -19 -38 -20 -52 -15 -187 10 -220 20 -294
49 -338 49 -73 167 -131 276 -135 50 -2 62 2 96 28 33 25 38 26 31 10 -4 -11
-10 -113 -13 -226 -4 -205 -4 -206 20 -245 59 -92 169 -164 308 -201 91 -24
319 -23 414 2 334 86 511 305 452 558 -20 85 -80 207 -128 262 -41 46 -37 55
20 55 41 0 124 43 167 86 21 22 52 68 69 104 30 62 31 71 31 190 0 152 -14
189 -101 275 -95 94 -155 128 -229 133 -53 4 -71 0 -116 -23 -30 -14 -71 -39
-91 -56 -20 -16 -39 -29 -41 -29 -2 0 -7 27 -10 60 -9 81 -37 131 -100 181
-86 69 -186 112 -270 115 -40 2 -83 0 -97 -5z m-203 -433 c-3 -8 -6 -5 -6 6
-1 11 2 17 5 13 3 -3 4 -12 1 -19z m451 -1395 c-10 -2 -26 -2 -35 0 -10 3 -2
5 17 5 19 0 27 -2 18 -5z"/>
<path d="M0 20 c0 -14 7 -20 22 -20 20 0 21 1 3 20 -10 11 -20 20 -22 20 -1 0
-3 -9 -3 -20z"/>
<path d="M1985 20 c-18 -19 -17 -20 3 -20 15 0 22 6 22 20 0 25 -2 25 -25 0z"/>
</g>
</svg>
